<svg xmlns="http://www.w3.org/2000/svg" viewBox="0 0 401.01 146.39"><title>aprilia-logo</title><path d="M336.48,499.07c2-9.75,7.67-12,15.63-12,8.23,0,16.66,1.62,16.66,10.1,0,4.92-3.84,6.59-9.59,7.42-5.59.8-10.4,1.82-15.3,2.35-15.2,1.7-32.39,6.6-32.39,27.74,0,17.71,15.81,26.93,30.21,26.93,9.54,0,21.21-3.23,26.52-11.11.61-.55.72-.07.82-.07.48,1.06,1.59,6.78,2.41,9.38h21.26c.37-.17.17-.77-.06-1.17-2.77-5-2.13-13-2.26-19.94V494.92c.13-20.52-21.69-24.35-38.83-24.35-22.36,0-34.87,6.43-37,28.5Zm31.6,33.29c-1.77,5.6-9.5,11.84-21.7,12.33-7.54.31-13.83-4.37-12.36-12.45,1.47-7.91,14.23-11.23,21.5-12.59,6-1.16,9.47-2.25,13.24-3.25,0,0,.51,12.19-.68,16" transform="translate(-311.49 -438.81)" style="fill:#1d1d1b"/><path d="M656.08,499.07c2-9.76,7.68-12,15.61-12,8.23,0,16.68,1.62,16.68,10.1,0,4.92-3.85,6.59-9.6,7.41-5.56.8-10.38,1.82-15.28,2.35-15.23,1.7-32.39,6.61-32.39,27.74,0,17.71,15.81,26.93,30.22,26.93,9.54,0,21.21-3.23,26.51-11.11.61-.54.74-.07.81-.07.5,1.07,1.59,6.79,2.41,9.39h21.27c.35-.18.16-.77-.06-1.18-2.77-5-2.14-13-2.26-19.93V494.91c.12-20.52-21.69-24.34-38.83-24.34-22.35,0-34.87,6.42-37,28.5Zm31.61,33.29c-1.77,5.59-9.5,11.83-21.69,12.33-7.55.31-13.86-4.37-12.36-12.45,1.46-7.92,14.21-11.23,21.47-12.59,6.05-1.16,9.47-2.26,13.27-3.25,0,0,.49,12.18-.69,16" transform="translate(-311.49 -438.81)" style="fill:#1d1d1b"/><path d="M441.22,541.71c-16.45,0-20.67-13-20.67-26.71s4.22-27.21,20.51-27.21c13.73,0,19.26,12.65,19.26,27.21,0,12.78-5.13,26.7-19.11,26.71m-43.61,43.48H421v-37.9l0-.14c5.59,8.31,10.87,14,24.2,14,25.88,0,38.4-20.48,38.4-46.07,0-26.78-12.53-46.58-37.34-46.58-8.45,0-18.08,2-24.55,11.73-.28.43-.63.34-.68,0l-.92-7H397.61Z" transform="translate(-311.49 -438.81)" style="fill:#1d1d1b"/><path d="M488.19,559.85h22.49V519.58c0-6.94,3.83-18.35,12.55-23.38,5.67-3.29,10.87-2.81,12.75-2.08V472.07c-1.22-.75-3.34-.95-7.23-.54-7.44.77-11.62,3.15-15.4,8.93a31.51,31.51,0,0,0-1.9,3.69l-1.8-10.85H488.19Z" transform="translate(-311.49 -438.81)" style="fill:#1d1d1b"/><path d="M565.31,438.81H543.42v20.64h21.89ZM543.42,560.08h21.89v-86.8H543.42Z" transform="translate(-311.49 -438.81)" style="fill:#1d1d1b"/><path d="M623.85,438.81H602v20.64h21.88ZM602,560.08h21.88v-86.8H602Z" transform="translate(-311.49 -438.81)" style="fill:#1d1d1b"/><rect x="261.46" width="21.31" height="121.28" style="fill:#1d1d1b"/></svg>